<svg width="20.000000" height="20.000000" viewBox="0 0 20 20" fill="none" xmlns="http://www.w3.org/2000/svg" xmlns:xlink="http://www.w3.org/1999/xlink">
	<defs/>
	<rect id="analyze" width="20.000000" height="20.000000" fill="#FFFFFF" fill-opacity="0"/>
	<path id="Vector" d="M6.25 13.33C6.58 13.33 6.89 13.2 7.13 12.96C7.36 12.73 7.5 12.41 7.5 12.08C7.5 12.04 7.5 12 7.5 11.95L9.82 9.63L10.01 9.63L10.2 9.63L11.55 10.97C11.55 10.97 11.55 11.01 11.55 11.04C11.55 11.37 11.68 11.69 11.91 11.92C12.15 12.16 12.46 12.29 12.8 12.29C13.13 12.29 13.45 12.16 13.68 11.92C13.91 11.69 14.05 11.37 14.05 11.04L14.05 10.97L17.08 7.91C17.33 7.91 17.57 7.84 17.77 7.7C17.98 7.56 18.14 7.37 18.23 7.14C18.33 6.91 18.35 6.66 18.3 6.42C18.26 6.18 18.14 5.95 17.96 5.78C17.79 5.6 17.57 5.48 17.32 5.44C17.08 5.39 16.83 5.41 16.6 5.51C16.37 5.6 16.18 5.76 16.04 5.97C15.9 6.17 15.83 6.41 15.83 6.66C15.83 6.7 15.83 6.75 15.83 6.79L12.82 9.8L12.69 9.8L11.25 8.33C11.25 8 11.11 7.68 10.88 7.45C10.64 7.21 10.33 7.08 10 7.08C9.66 7.08 9.35 7.21 9.11 7.45C8.88 7.68 8.75 8 8.75 8.33L6.25 10.83C5.91 10.83 5.6 10.96 5.36 11.2C5.13 11.43 5 11.75 5 12.08C5 12.41 5.13 12.73 5.36 12.96C5.6 13.2 5.91 13.33 6.25 13.33ZM17.5 16.66L3.33 16.66L3.33 2.5C3.33 2.27 3.24 2.06 3.08 1.91C2.93 1.75 2.72 1.66 2.5 1.66C2.27 1.66 2.06 1.75 1.91 1.91C1.75 2.06 1.66 2.27 1.66 2.5L1.66 17.5C1.66 17.72 1.75 17.93 1.91 18.08C2.06 18.24 2.27 18.33 2.5 18.33L17.5 18.33C17.72 18.33 17.93 18.24 18.08 18.08C18.24 17.93 18.33 17.72 18.33 17.5C18.33 17.27 18.24 17.06 18.08 16.91C17.93 16.75 17.72 16.66 17.5 16.66Z" fill="#F84F56" fill-opacity="1.000000" fill-rule="nonzero"/>
	<rect id="Rectangle 545" width="20.000000" height="20.000000" fill="#FFFFFF" fill-opacity="0"/>
</svg>
