<svg width="20.000000" height="20.000000" viewBox="0 0 20 20" fill="none" xmlns="http://www.w3.org/2000/svg" xmlns:xlink="http://www.w3.org/1999/xlink">
	<desc>
			Created with Pixso.
	</desc>
	<defs/>
	<rect id="icon" width="20.000000" height="20.000000" fill="#FFFFFF" fill-opacity="0"/>
	<path id="Vector" d="M18.08 12.98L14.32 9.22C14.4 8.83 14.44 8.44 14.43 8.05C14.43 6.98 14.16 5.92 13.65 4.98C13.13 4.04 12.38 3.24 11.48 2.66C10.57 2.09 9.53 1.75 8.46 1.68C7.39 1.61 6.32 1.81 5.34 2.26C5.22 2.32 5.11 2.4 5.03 2.51C4.95 2.62 4.89 2.74 4.87 2.88C4.85 3.01 4.85 3.14 4.89 3.27C4.94 3.4 5.01 3.52 5.1 3.61L8.73 7.23L7.23 8.73L3.61 5.1C3.51 5.01 3.4 4.94 3.27 4.9C3.14 4.86 3.01 4.85 2.88 4.88C2.74 4.9 2.62 4.95 2.51 5.03C2.4 5.12 2.32 5.22 2.26 5.34C1.8 6.32 1.6 7.4 1.68 8.47C1.75 9.55 2.09 10.59 2.67 11.5C3.26 12.4 4.06 13.15 5.01 13.66C5.95 14.18 7.02 14.44 8.09 14.44C8.49 14.44 8.88 14.4 9.26 14.32L13.02 18.08C13.1 18.16 13.19 18.23 13.29 18.27C13.39 18.31 13.5 18.33 13.61 18.33C13.72 18.33 13.83 18.31 13.93 18.27C14.03 18.23 14.12 18.16 14.2 18.08C14.28 18.01 14.34 17.92 14.38 17.81C14.43 17.71 14.45 17.6 14.45 17.49C14.45 17.38 14.43 17.27 14.38 17.17C14.34 17.07 14.28 16.98 14.2 16.9L10.12 12.82C10.02 12.72 9.89 12.64 9.75 12.61C9.61 12.57 9.47 12.57 9.33 12.6C8.92 12.71 8.51 12.77 8.09 12.77C7.47 12.77 6.85 12.66 6.27 12.42C5.7 12.19 5.17 11.84 4.73 11.4C4.29 10.96 3.93 10.44 3.69 9.87C3.45 9.29 3.33 8.68 3.33 8.05C3.33 7.77 3.35 7.49 3.39 7.22L6.66 10.49C6.74 10.57 6.83 10.63 6.93 10.68C7.03 10.72 7.14 10.74 7.25 10.74C7.36 10.74 7.47 10.72 7.57 10.68C7.67 10.63 7.77 10.57 7.84 10.49L10.49 7.82C10.64 7.66 10.73 7.46 10.73 7.24C10.73 7.02 10.64 6.82 10.49 6.66L7.25 3.39C7.53 3.35 7.81 3.33 8.08 3.33C9.34 3.33 10.54 3.83 11.42 4.71C12.31 5.6 12.8 6.8 12.8 8.05C12.8 8.47 12.74 8.88 12.63 9.29C12.6 9.42 12.6 9.57 12.64 9.71C12.68 9.85 12.75 9.97 12.85 10.08L16.93 14.16C17.09 14.32 17.3 14.41 17.53 14.41C17.75 14.41 17.96 14.32 18.12 14.16C18.28 14 18.36 13.79 18.36 13.57C18.36 13.35 18.28 13.13 18.12 12.98L18.08 12.98Z" fill="#72767C" fill-opacity="1.000000" fill-rule="nonzero"/>
	<rect id="Rectangle 542" width="20.000000" height="20.000000" fill="#FFFFFF" fill-opacity="0"/>
</svg>
