<svg width="20.000000" height="20.000000" viewBox="0 0 20 20" fill="none" xmlns="http://www.w3.org/2000/svg" xmlns:xlink="http://www.w3.org/1999/xlink">
	<desc>
			Created with Pixso.
	</desc>
	<defs/>
	<rect id="icon" width="20.000000" height="20.000000" fill="#FFFFFF" fill-opacity="0"/>
	<path id="Vector" d="M10 5.83C9.77 5.83 9.56 5.92 9.41 6.07C9.25 6.23 9.16 6.44 9.16 6.66L9.16 10C9.16 10.22 9.25 10.43 9.41 10.58C9.56 10.74 9.77 10.83 10 10.83C10.22 10.83 10.43 10.74 10.58 10.58C10.74 10.43 10.83 10.22 10.83 10L10.83 6.66C10.83 6.44 10.74 6.23 10.58 6.07C10.43 5.92 10.22 5.83 10 5.83ZM10.76 13.01C10.74 12.96 10.72 12.91 10.69 12.86L10.59 12.74C10.47 12.62 10.32 12.54 10.16 12.51C10 12.48 9.83 12.5 9.68 12.56C9.58 12.6 9.48 12.66 9.4 12.74C9.33 12.82 9.27 12.91 9.22 13.01C9.18 13.11 9.16 13.22 9.16 13.33C9.16 13.44 9.19 13.54 9.23 13.65C9.27 13.75 9.33 13.84 9.4 13.92C9.48 14 9.57 14.06 9.68 14.1C9.78 14.14 9.89 14.16 10 14.16C10.1 14.16 10.21 14.14 10.31 14.1C10.41 14.06 10.51 14 10.59 13.92C10.66 13.84 10.72 13.75 10.76 13.65C10.8 13.54 10.83 13.44 10.83 13.33C10.83 13.27 10.83 13.22 10.83 13.16C10.81 13.11 10.79 13.06 10.76 13.01ZM10 1.66C8.35 1.66 6.74 2.15 5.37 3.07C3.99 3.98 2.93 5.28 2.3 6.81C1.66 8.33 1.5 10 1.82 11.62C2.14 13.24 2.94 14.72 4.1 15.89C5.27 17.05 6.75 17.85 8.37 18.17C9.99 18.49 11.66 18.33 13.18 17.69C14.71 17.06 16.01 16 16.92 14.62C17.84 13.25 18.33 11.64 18.33 10C18.33 8.9 18.11 7.82 17.69 6.81C17.28 5.79 16.66 4.88 15.89 4.1C15.11 3.33 14.19 2.71 13.18 2.3C12.17 1.88 11.09 1.66 10 1.66ZM10 16.66C8.68 16.66 7.39 16.27 6.29 15.54C5.19 14.81 4.34 13.76 3.84 12.55C3.33 11.33 3.2 9.99 3.46 8.7C3.71 7.4 4.35 6.21 5.28 5.28C6.21 4.35 7.4 3.71 8.69 3.46C9.99 3.2 11.33 3.33 12.55 3.84C13.76 4.34 14.81 5.2 15.54 6.29C16.27 7.39 16.66 8.68 16.66 10C16.66 11.76 15.96 13.46 14.71 14.71C13.46 15.96 11.76 16.66 10 16.66Z" fill="#FF5A5A" fill-opacity="1.000000" fill-rule="nonzero"/>
	<rect id="Rectangle 541" width="20.000000" height="20.000000" fill="#FFFFFF" fill-opacity="0"/>
</svg>
