<svg width="20.000000" height="20.000000" viewBox="0 0 20 20" fill="none" xmlns="http://www.w3.org/2000/svg" xmlns:xlink="http://www.w3.org/1999/xlink">
	<desc>
			Created with Pixso.
	</desc>
	<defs/>
	<rect id="icon" width="20.000000" height="20.000000" fill="#FFFFFF" fill-opacity="0"/>
	<path id="Vector" d="M9.19 1.66C8.09 1.66 7.01 1.88 6 2.3C4.99 2.71 4.07 3.33 3.29 4.1C1.73 5.67 0.85 7.79 0.85 10C0.84 11.92 1.51 13.79 2.74 15.27L1.07 16.94C0.95 17.05 0.87 17.2 0.84 17.37C0.81 17.53 0.83 17.69 0.89 17.85C0.96 18 1.08 18.12 1.22 18.21C1.36 18.29 1.52 18.34 1.69 18.33L9.19 18.33C11.4 18.33 13.52 17.45 15.08 15.89C16.64 14.33 17.52 12.21 17.52 10C17.52 7.79 16.64 5.67 15.08 4.1C13.52 2.54 11.4 1.66 9.19 1.66ZM9.19 16.66L3.69 16.66L4.47 15.89C4.62 15.73 4.71 15.52 4.71 15.3C4.71 15.08 4.62 14.87 4.47 14.71C3.38 13.62 2.7 12.19 2.55 10.65C2.39 9.12 2.78 7.58 3.63 6.29C4.49 5.01 5.77 4.07 7.24 3.62C8.72 3.17 10.3 3.25 11.73 3.83C13.15 4.42 14.33 5.49 15.06 6.85C15.79 8.21 16.02 9.78 15.72 11.29C15.42 12.8 14.6 14.17 13.41 15.15C12.22 16.12 10.73 16.66 9.19 16.66Z" fill="#242731" fill-opacity="1.000000" fill-rule="nonzero"/>
	<rect id="Rectangle 540" width="20.000000" height="20.000000" fill="#FFFFFF" fill-opacity="0"/>
</svg>
