<svg width="24.000000" height="24.000000" viewBox="0 0 24 24" fill="none" xmlns="http://www.w3.org/2000/svg" xmlns:xlink="http://www.w3.org/1999/xlink">
	<desc>
			Created with Pixso.
	</desc>
	<defs>
		<clipPath id="clip27_772">
			<rect id="icons/Grid/Line" width="24.000000" height="24.000000" fill="white" fill-opacity="0"/>
		</clipPath>
	</defs>
	<g clip-path="url(#clip27_772)">
		<path id="Shape" d="M17.5 15C17.04 15 16.4 15.06 15.74 15.15C15.43 15.19 15.19 15.43 15.15 15.74C15.06 16.4 15 17.04 15 17.5C15 17.95 15.06 18.59 15.15 19.25C15.19 19.56 15.43 19.8 15.74 19.84C16.4 19.93 17.04 20 17.5 20C17.95 20 18.59 19.93 19.25 19.84C19.56 19.8 19.8 19.56 19.84 19.25C19.93 18.59 20 17.95 20 17.5C20 17.04 19.93 16.4 19.84 15.74C19.8 15.43 19.56 15.19 19.25 15.15C18.59 15.06 17.95 15 17.5 15ZM15.47 13.17C14.27 13.33 13.33 14.27 13.17 15.47C13.07 16.16 13 16.9 13 17.5C13 18.09 13.07 18.83 13.17 19.52C13.33 20.72 14.27 21.66 15.47 21.82C16.16 21.92 16.9 22 17.5 22C18.09 22 18.83 21.92 19.52 21.82C20.72 21.66 21.66 20.72 21.82 19.52C21.92 18.83 22 18.09 22 17.5C22 16.9 21.92 16.16 21.82 15.47C21.66 14.27 20.72 13.33 19.52 13.17C18.83 13.07 18.09 13 17.5 13C16.9 13 16.16 13.07 15.47 13.17Z" fill="#777E91" fill-opacity="1.000000" fill-rule="evenodd"/>
		<path id="Shape" d="M6.5 15C6.04 15 5.4 15.06 4.74 15.15C4.43 15.19 4.19 15.43 4.15 15.74C4.06 16.4 4 17.04 4 17.5C4 17.95 4.06 18.59 4.15 19.25C4.19 19.56 4.43 19.8 4.74 19.84C5.4 19.93 6.04 20 6.5 20C6.95 20 7.59 19.93 8.25 19.84C8.56 19.8 8.8 19.56 8.84 19.25C8.93 18.59 9 17.95 9 17.5C9 17.04 8.93 16.4 8.84 15.74C8.8 15.43 8.56 15.19 8.25 15.15C7.59 15.06 6.95 15 6.5 15ZM4.47 13.17C3.27 13.33 2.33 14.27 2.17 15.47C2.07 16.16 2 16.9 2 17.5C2 18.09 2.07 18.83 2.17 19.52C2.33 20.72 3.27 21.66 4.47 21.82C5.16 21.92 5.9 22 6.5 22C7.09 22 7.83 21.92 8.52 21.82C9.72 21.66 10.66 20.72 10.82 19.52C10.92 18.83 11 18.09 11 17.5C11 16.9 10.92 16.16 10.82 15.47C10.66 14.27 9.72 13.33 8.52 13.17C7.83 13.07 7.09 13 6.5 13C5.9 13 5.16 13.07 4.47 13.17Z" fill="#777E91" fill-opacity="1.000000" fill-rule="evenodd"/>
		<path id="Shape" d="M17.5 4C17.04 4 16.4 4.06 15.74 4.15C15.43 4.19 15.19 4.43 15.15 4.74C15.06 5.4 15 6.04 15 6.5C15 6.95 15.06 7.59 15.15 8.25C15.19 8.56 15.43 8.8 15.74 8.84C16.4 8.93 17.04 9 17.5 9C17.95 9 18.59 8.93 19.25 8.84C19.56 8.8 19.8 8.56 19.84 8.25C19.93 7.59 20 6.95 20 6.5C20 6.04 19.93 5.4 19.84 4.74C19.8 4.43 19.56 4.19 19.25 4.15C18.59 4.06 17.95 4 17.5 4ZM15.47 2.17C14.27 2.33 13.33 3.27 13.17 4.47C13.07 5.16 13 5.9 13 6.5C13 7.09 13.07 7.83 13.17 8.52C13.33 9.72 14.27 10.66 15.47 10.82C16.16 10.92 16.9 11 17.5 11C18.09 11 18.83 10.92 19.52 10.82C20.72 10.66 21.66 9.72 21.82 8.52C21.92 7.83 22 7.09 22 6.5C22 5.9 21.92 5.16 21.82 4.47C21.66 3.27 20.72 2.33 19.52 2.17C18.83 2.07 18.09 2 17.5 2C16.9 2 16.16 2.07 15.47 2.17Z" fill="#777E91" fill-opacity="1.000000" fill-rule="evenodd"/>
		<path id="Shape" d="M6.5 4C6.04 4 5.4 4.06 4.74 4.15C4.43 4.19 4.19 4.43 4.15 4.74C4.06 5.4 4 6.04 4 6.5C4 6.95 4.06 7.59 4.15 8.25C4.19 8.56 4.43 8.8 4.74 8.84C5.4 8.93 6.04 9 6.5 9C6.95 9 7.59 8.93 8.25 8.84C8.56 8.8 8.8 8.56 8.84 8.25C8.93 7.59 9 6.95 9 6.5C9 6.04 8.93 5.4 8.84 4.74C8.8 4.43 8.56 4.19 8.25 4.15C7.59 4.06 6.95 4 6.5 4ZM4.47 2.17C3.27 2.33 2.33 3.27 2.17 4.47C2.07 5.16 2 5.9 2 6.5C2 7.09 2.07 7.83 2.17 8.52C2.33 9.72 3.27 10.66 4.47 10.82C5.16 10.92 5.9 11 6.5 11C7.09 11 7.83 10.92 8.52 10.82C9.72 10.66 10.66 9.72 10.82 8.52C10.92 7.83 11 7.09 11 6.5C11 5.9 10.92 5.16 10.82 4.47C10.66 3.27 9.72 2.33 8.52 2.17C7.83 2.07 7.09 2 6.5 2C5.9 2 5.16 2.07 4.47 2.17Z" fill="#777E91" fill-opacity="1.000000" fill-rule="evenodd"/>
	</g>
</svg>
