<svg width="24.000000" height="24.000000" viewBox="0 0 24 24" fill="none" xmlns="http://www.w3.org/2000/svg" xmlns:xlink="http://www.w3.org/1999/xlink">
	<desc>
			Created with Pixso.
	</desc>
	<defs>
		<clipPath id="clip27_779">
			<rect id="icons/Settings 01/Line" width="24.000000" height="24.000000" fill="white" fill-opacity="0"/>
		</clipPath>
	</defs>
	<g clip-path="url(#clip27_779)">
		<path id="Shape" d="M2 16C1.44 16 1 16.44 1 17C1 17.55 1.44 18 2 18L13 18C13.55 18 14 17.55 14 17C14 16.44 13.55 16 13 16L2 16ZM19 16C18.44 16 18 16.44 18 17C18 17.55 18.44 18 19 18L22 18C22.55 18 23 17.55 23 17C23 16.44 22.55 16 22 16L19 16Z" fill="#FFFFFF" fill-opacity="1.000000" fill-rule="evenodd"/>
		<path id="Shape" d="M16 19C17.1 19 18 18.1 18 17C18 15.89 17.1 15 16 15C14.89 15 14 15.89 14 17C14 18.1 14.89 19 16 19ZM16 21C18.2 21 20 19.2 20 17C20 14.79 18.2 13 16 13C13.79 13 12 14.79 12 17C12 19.2 13.79 21 16 21Z" fill="#FFFFFF" fill-opacity="1.000000" fill-rule="evenodd"/>
		<path id="Shape" d="M2 6C1.44 6 1 6.44 1 7C1 7.55 1.44 8 2 8L5 8C5.55 8 6 7.55 6 7C6 6.44 5.55 6 5 6L2 6ZM11 6C10.44 6 10 6.44 10 7C10 7.55 10.44 8 11 8L22 8C22.55 8 23 7.55 23 7C23 6.44 22.55 6 22 6L11 6Z" fill="#FFFFFF" fill-opacity="1.000000" fill-rule="evenodd"/>
		<path id="Shape" d="M8 9C9.1 9 10 8.1 10 7C10 5.89 9.1 5 8 5C6.89 5 6 5.89 6 7C6 8.1 6.89 9 8 9ZM8 11C10.2 11 12 9.2 12 7C12 4.79 10.2 3 8 3C5.79 3 4 4.79 4 7C4 9.2 5.79 11 8 11Z" fill="#FFFFFF" fill-opacity="1.000000" fill-rule="evenodd"/>
	</g>
</svg>
